<svg width="97" height="96" viewBox="0 0 97 96" fill="none" xmlns="http://www.w3.org/2000/svg">
<circle opacity="0.5" cx="48.5" cy="48" r="47.5" fill="white" stroke="#3C6396"/>
<path d="M54.5554 41.6143H33.3268C32.9749 41.6143 32.6374 41.754 32.3886 42.0029C32.1398 42.2517 32 42.5892 32 42.941V51.061C32.0041 51.3823 32.1247 51.6913 32.3395 51.9305C32.5542 52.1696 32.8485 52.3227 33.1676 52.3612L42.6143 53.5553C42.6143 55.9171 43.3146 58.2256 44.6267 60.1895C45.9388 62.1532 47.8038 63.6837 49.9857 64.5876C52.1676 65.4914 54.5686 65.7278 56.885 65.2669C59.2012 64.8062 61.3289 63.6689 62.999 61.999C64.6689 60.3288 65.8062 58.2012 66.2669 55.8849C66.7278 53.5686 66.4914 51.1676 65.5876 48.9857C64.6838 46.8037 63.1532 44.9388 61.1896 43.6267C59.2256 42.3146 56.9171 41.6143 54.5554 41.6143Z" stroke="#FA1600" stroke-width="2.85" stroke-linecap="round" stroke-linejoin="round"/>
<path d="M54.5553 57.5359C56.7536 57.5359 58.5357 55.7538 58.5357 53.5556C58.5357 51.3573 56.7536 49.5752 54.5553 49.5752C52.357 49.5752 50.575 51.3573 50.575 53.5556C50.575 55.7538 52.357 57.5359 54.5553 57.5359Z" stroke="#4B7DBC" stroke-width="2.85" stroke-linecap="round" stroke-linejoin="round"/>
<path d="M45.2678 31V34.9804" stroke="#4B7DBC" stroke-width="2.85" stroke-linecap="round" stroke-linejoin="round"/>
<path d="M50.575 36.3072L53.8919 32.9902" stroke="#4B7DBC" stroke-width="2.85" stroke-linecap="round" stroke-linejoin="round"/>
<path d="M39.9608 36.3072L36.6438 32.9902" stroke="#4B7DBC" stroke-width="2.85" stroke-linecap="round" stroke-linejoin="round"/>
</svg>
