<svg width="97" height="96" viewBox="0 0 97 96" fill="none" xmlns="http://www.w3.org/2000/svg">
<circle opacity="0.5" cx="48.5" cy="48" r="47.5" fill="white" stroke="#3C6396"/>
<path d="M60.1893 62.1898H65.4965V60.8631C65.4965 55.1801 61.5267 50.4244 56.209 49.2178" stroke="#4B7DBC" stroke-width="2.85" stroke-linecap="round" stroke-linejoin="round"/>
<path d="M52.2285 33.1672C52.6526 33.0581 53.0972 33 53.5553 33C56.4864 33 58.8624 35.3761 58.8624 38.3071C58.8624 41.2382 56.4864 43.6143 53.5553 43.6143C53.0972 43.6143 52.6526 43.5562 52.2285 43.4471" stroke="#4B7DBC" stroke-width="2.85" stroke-linecap="round" stroke-linejoin="round"/>
<path d="M42.9411 48.9219C36.3462 48.9219 31 54.2681 31 60.8629V62.1897H54.8821V60.8629C54.8821 54.2681 49.5359 48.9219 42.9411 48.9219Z" stroke="#FA1600" stroke-width="2.85" stroke-linecap="round" stroke-linejoin="round"/>
<path d="M42.9411 43.6143C45.8721 43.6143 48.2482 41.2382 48.2482 38.3071C48.2482 35.3761 45.8721 33 42.9411 33C40.01 33 37.6339 35.3761 37.6339 38.3071C37.6339 41.2382 40.01 43.6143 42.9411 43.6143Z" stroke="#FA1600" stroke-width="2.85" stroke-linecap="round" stroke-linejoin="round"/>
</svg>
